<svg xmlns="http://www.w3.org/2000/svg" width="46" height="32" viewBox="0 0 46 32">
  <path fill="#FFFFFF" fill-rule="evenodd" d="M576.416667,107 L570.666667,107 C569.999667,107 569.36525,107.118 568.75,107.284 L568.75,107 C568.75,104.792 570.46925,103 572.583333,103 L572.583333,97 C567.299083,97 563,101.486 563,107 L563,114 L563.09775,114 C563.055583,114.332 563,114.658 563,115 L563,121 C563,125.418 566.43275,129 570.666667,129 L576.416667,129 C580.650583,129 584.083333,125.418 584.083333,121 L584.083333,115 C584.083333,110.582 580.650583,107 576.416667,107 M601.333333,107 L595.583333,107 C594.916333,107 594.281917,107.118 593.666667,107.284 L593.666667,107 C593.666667,104.792 595.385917,103 597.5,103 L597.5,97 C592.21575,97 587.916667,101.486 587.916667,107 L587.916667,114 L588.014417,114 C587.97225,114.332 587.916667,114.658 587.916667,115 L587.916667,121 C587.916667,125.418 591.349417,129 595.583333,129 L601.333333,129 C605.56725,129 609,125.418 609,121 L609,115 C609,110.582 605.56725,107 601.333333,107" transform="translate(-563 -97)"/>
</svg>
