<svg xmlns="http://www.w3.org/2000/svg" width="29" height="24" viewBox="0 0 29 24">
  <g fill="none" fill-rule="evenodd">
    <path fill="#A8A8A8" d="M12.663.303L2.09 4.729C1.502 4.975 1.508 5.82 2.1 6.057L12.717 10.316C13.65 10.691 14.689 10.691 15.622 10.316L26.239 6.057C26.83 5.82 26.837 4.975 26.248 4.729L15.676.303C14.711-.101 13.628-.101 12.663.303M15.111 12.642L15.111 23.283C15.111 23.789 15.616 24.135 16.081 23.949L27.912 19.303C28.182 19.195 28.359 18.931 28.359 18.637L28.359 7.997C28.359 7.491 27.854 7.144 27.389 7.331L15.559 11.976C15.289 12.085 15.111 12.349 15.111 12.642M12.349 13.191L8.838 14.906 8.481 15.081 1.069 18.673C.6 18.903 0 18.556 0 18.028L0 8.041C0 7.85.097 7.685.227 7.561.28 7.508.34 7.462.406 7.425.583 7.318.836 7.289 1.051 7.375L12.29 11.88C12.861 12.109 12.906 12.919 12.349 13.191"/>
    <path fill="#8F8F8F" d="M8.838,14.906 L0.227,7.561 C0.28,7.508 0.34,7.462 0.406,7.425 C0.583,7.318 0.836,7.289 1.051,7.375 L12.29,11.88 C12.861,12.109 12.906,12.919 12.349,13.191 L8.838,14.906 Z"/>
  </g>
</svg>
