<svg xmlns="http://www.w3.org/2000/svg" width="29" height="26"><path d="M 12.663 1.303 L 2.09 5.729 C 1.502 5.975 1.508 6.82 2.1 7.057 L 12.717 11.316 C 13.65 11.691 14.689 11.691 15.622 11.316 L 26.239 7.057 C 26.83 6.82 26.837 5.975 26.248 5.729 L 15.676 1.303 C 14.711 0.899 13.628 0.899 12.663 1.303" fill="#FFFFFF"></path><path d="M 15.111 13.642 L 15.111 24.283 C 15.111 24.789 15.616 25.135 16.081 24.949 L 27.912 20.303 C 28.182 20.195 28.359 19.931 28.359 19.637 L 28.359 8.997 C 28.359 8.491 27.854 8.144 27.389 8.331 L 15.559 12.976 C 15.289 13.085 15.111 13.349 15.111 13.642" fill="#FFFFFF"></path><path d="M 12.349 14.191 L 8.838 15.906 L 8.481 16.081 L 1.069 19.673 C 0.6 19.903 0 19.556 0 19.028 L 0 9.041 C 0 8.85 0.097 8.685 0.227 8.561 C 0.28 8.508 0.34 8.462 0.406 8.425 C 0.583 8.318 0.836 8.289 1.051 8.375 L 12.29 12.88 C 12.861 13.109 12.906 13.919 12.349 14.191" fill="#FFFFFF"></path><path d="M 12.349 14.191 L 8.838 15.906 L 0.227 8.561 C 0.28 8.508 0.34 8.462 0.406 8.425 C 0.583 8.318 0.836 8.289 1.051 8.375 L 12.29 12.88 C 12.861 13.109 12.906 13.919 12.349 14.191" fill="#DDDDDD"></path></svg>
