<svg width="10" height="8" viewBox="0 0 10 8" fill="none" xmlns="http://www.w3.org/2000/svg">
<path d="M9.1758 0.458471C9.08553 0.382909 8.98072 0.325859 8.86758 0.290694C8.75443 0.25553 8.63523 0.242964 8.51705 0.253741C8.39886 0.264517 8.28407 0.298417 8.17948 0.353436C8.07489 0.408455 7.98261 0.483476 7.9081 0.574063L3.92587 5.35434L1.89898 4.00254C1.48586 3.72636 0.926481 3.83842 0.651069 4.25225C0.375656 4.66609 0.487262 5.22508 0.90083 5.50082L4.27328 7.75L9.29146 1.72645C9.44441 1.54195 9.5179 1.30623 9.4963 1.06943C9.4747 0.832632 9.35971 0.613437 9.1758 0.458471Z" fill="#3A8BBB"/>
</svg>
