<svg width="962" height="1035" viewBox="0 0 962 1035" fill="none" xmlns="http://www.w3.org/2000/svg"><g clip-path="url(#clip0)"><rect width="962" height="1035" fill="#FFF3E6"/><rect width="863.9" height="1360.3" fill="#000" fill-opacity="0" transform="translate(217.8 -153)"/><path d="M351.8 921.9V981.2" stroke="#A0E8EC" stroke-width="5" stroke-miterlimit="10" stroke-linecap="round"/><path d="M362.9 914.1V943.5" stroke="#A0E8EC" stroke-width="5" stroke-miterlimit="10" stroke-linecap="round"/><path d="M357.4 925.8C368.998 925.8 378.4 916.398 378.4 904.8C378.4 893.202 368.998 883.8 357.4 883.8C345.802 883.8 336.4 893.202 336.4 904.8C336.4 916.398 345.802 925.8 357.4 925.8Z" fill="#A0E8EC"/><rect width="360.973" height="373.421" fill="#000" fill-opacity="0" transform="translate(454.37 550.238)"/><path d="M629.7 891.5C632.3 892.2 635 892.7 637.7 893.1C640.4 893.4 643.1 893.5 645.7 893.6C648.4 893.6 651 893.4 653.7 893.2C656.4 892.9 659 892.5 661.6 892C672.1 889.8 682.3 886.6 692.3 882.6C712.2 874.6 730.7 863.1 746.4 848.7C762.1 834.3 775 816.9 783.5 797.6C792.1 778.3 796.1 757 795.4 735.8C793.8 692.9 777.7 650 749.2 617.9C735 601.9 717.7 588.7 698.3 580.2C678.9 571.6 657.6 567.8 636.4 569C614.7 570.3 593 574.2 572.8 581.8C552.7 589.3 534 600.5 519.1 615.6C504.1 630.6 492.7 649.1 485.3 669.3C477.8 689.4 474.1 711.2 473 732.9C472 754.3 475.3 775.8 482.9 795.8C490.4 815.7 502.3 834 517.4 848.8C532.5 863.7 550.9 875.1 571 882.1C591 889.1 612.6 891.8 634 890.7H634.1C639.8 890.4 644.6 894.8 644.9 900.5C645.2 906.2 640.8 911 635.1 911.3H635C611.2 912.2 587 909 564.4 900.7C541.8 892.6 520.9 879.5 503.9 862.5C486.8 845.6 473.6 824.8 465.3 802.4C456.9 779.9 453.4 755.8 454.6 732C455.2 720.2 456.5 708.6 458.7 697C460.9 685.4 464 674 468.1 662.8C472.2 651.7 477.5 640.9 483.8 630.7C490.2 620.5 497.7 611.1 506.2 602.6C523.2 585.5 544.2 572.8 566.4 564.5C577.5 560.3 588.9 557.2 600.5 554.9C612.1 552.6 623.7 551.2 635.4 550.5C647.4 549.8 659.5 550.5 671.4 552.6C683.3 554.7 694.9 558.3 705.9 563.1C728 572.7 747.6 587.5 763.5 605.3C779.4 623.1 791.8 643.7 800.5 665.8C804.8 676.8 808.2 688.2 810.7 699.8C811.4 702.7 811.8 705.6 812.4 708.5C813 711.4 813.3 714.4 813.7 717.3C814.1 720.2 814.4 723.2 814.6 726.1C814.7 727.6 814.9 729 815 730.5L815.2 735C815.7 747 814.9 759.1 812.7 770.9C810.5 782.8 807 794.4 802.2 805.5C792.7 827.7 778.2 847.5 760.6 863.8C743.1 880.1 722.5 893 700.5 902.1C689.5 906.7 678.1 910.2 666.5 913C663.6 913.6 660.7 914.4 657.8 915.1C656.3 915.4 654.9 915.8 653.4 916.2L649 917.4C646.1 918.1 643.1 918.9 640.2 919.8C637.2 920.6 634.3 921.4 631.3 922.6H631.2C622.8 925.8 613.4 921.5 610.2 913C607 904.6 611.3 895.2 619.8 892C623 890.6 626.5 890.6 629.7 891.5Z" fill="#E84C87"/><rect width="318.051" height="128.151" fill="#000" fill-opacity="0" transform="translate(453.867 603.482)"/><path d="M477.5 700C483.7 702.8 490 704.2 496.3 705.1C502.7 706 509 705.9 515.4 706C528.2 706.1 540.9 705.6 553.6 704.6C579 702.6 604.1 698 628.4 690.7C640.5 687 652.4 682.6 663.9 677.4C675.4 672.2 686.4 666.2 696.9 659.4C707.4 652.6 717.2 644.9 726.3 636.5C730.7 632.2 735.1 627.8 739.1 623.2C743.2 618.6 746.8 613.7 750.4 608.7L750.6 608.4C754.4 603.1 761.7 601.9 767 605.7C772.3 609.5 773.5 616.8 769.7 622.1C769.6 622.2 769.5 622.4 769.4 622.5C765.1 628 760.7 633.3 755.9 638.3C751.2 643.4 746.2 648.1 741.1 652.7C730.8 661.8 719.7 669.8 708.2 677C696.7 684.2 684.6 690.5 672.3 695.9C660 701.4 647.3 706 634.4 709.9C621.5 713.8 608.5 717.1 595.3 719.6C582.1 722.1 568.9 723.9 555.6 725.3C542.3 726.6 529 727.4 515.6 727.5C512.3 727.6 508.9 727.5 505.6 727.5C503.9 727.5 502.3 727.5 500.6 727.6C498.9 727.6 497.3 727.7 495.6 727.8C492.3 728 488.9 728.4 485.5 728.8C482.1 729.3 478.7 729.8 475.3 730.9C466.5 733.6 457.3 728.6 454.6 719.8C451.9 711 456.9 701.8 465.7 699.1C469.7 697.9 473.8 698.3 477.3 699.8L477.5 700Z" fill="#E84C87"/><rect width="307.502" height="146.754" fill="#000" fill-opacity="0" transform="translate(506.971 728.675)"/><path d="M510.9 850.8C516.1 844.9 520.3 838.9 524.7 833.2C525.7 831.7 526.8 830.3 527.9 828.9L529.5 826.7C530 826 530.5 825.2 531.1 824.5L534.4 820.3C534.9 819.6 535.5 818.9 536 818.2L537.7 816.2C546.8 805.3 556.9 795.4 567.7 786.4C578.6 777.5 590.2 769.5 602.3 762.4C614.5 755.4 627.2 749.4 640.4 744.4C653.5 739.4 667.1 735.6 681 733C694.8 730.4 708.9 728.9 723 728.7C726.5 728.7 730.1 728.6 733.6 728.8L738.9 729L741.5 729.1C742.4 729.1 743.3 729.2 744.1 729.3L754.7 730.2L765.2 731.7C767 731.9 768.7 732.2 770.4 732.6L775.6 733.6C777.3 733.9 779.1 734.2 780.8 734.6L785.9 735.8C792.8 737.3 799.5 739.4 806.3 741.4C812.3 743.2 815.8 749.5 814 755.5C812.2 761.5 805.9 765 799.9 763.2C799.8 763.2 799.6 763.1 799.5 763.1L798.9 762.9C792.8 760.8 786.7 758.5 780.5 756.9L775.8 755.6C774.2 755.2 772.7 754.9 771.1 754.5L766.4 753.4C764.8 753 763.3 752.7 761.7 752.4L752.1 750.8L742.5 749.7C741.7 749.6 740.9 749.5 740.1 749.4L737.7 749.2L732.9 748.9L730.5 748.7L729.3 748.6H728.1H723.2C710.3 748.5 697.3 749.6 684.5 751.8C671.7 754 659.2 757.5 647 761.9C634.8 766.4 623 772 611.7 778.4C600.4 784.9 589.7 792.3 579.7 800.7C569.8 809 560.6 818.2 552.5 828.2L551 830.1C550.5 830.7 550 831.4 549.5 832L546.6 835.8C545.6 837.1 544.8 838.4 543.9 839.8C543.5 840.5 543 841.1 542.6 841.8C542.2 842.5 541.8 843.2 541.4 843.9C540.7 845.3 540 846.7 539.3 848.2C538.6 849.6 538.1 851.1 537.6 852.6C537.1 854.1 536.6 855.6 536.4 857.2C536.1 858.7 535.9 860.3 535.8 861.9C535.3 869.9 528.5 875.9 520.5 875.4C512.5 874.9 506.5 868.1 507 860.1C507.2 856.7 508.5 853.7 510.6 851.4L510.9 850.8Z" fill="#E84C87"/><rect width="164.018" height="333.418" fill="#000" fill-opacity="0" transform="translate(557.303 559.603)"/><path d="M592.7 575.5C593 577.6 593.6 579.4 594.2 581.2C594.9 583 595.6 584.6 596.5 586.2C596.9 587 597.4 587.7 597.9 588.5C598.4 589.3 598.8 590 599.3 590.7C600.3 592.1 601.4 593.5 602.4 594.9L605.5 599.1C606.6 600.5 607.5 602 608.5 603.4L614.4 612C616.3 614.9 618.2 617.8 620.1 620.7C622 623.6 623.9 626.5 625.7 629.5L631.1 638.4C632 639.9 632.9 641.4 633.8 642.9L636.3 647.4L641.4 656.4L642.7 658.7L643.9 661L646.3 665.6L651.1 674.8C652.7 677.9 654.2 681 655.7 684.1L660.2 693.4C661.7 696.5 663.1 699.7 664.5 702.8C667.3 709.1 670.3 715.3 672.9 721.7C678.4 734.4 683.3 747.3 688.1 760.2L695 779.7L701.2 799.5C709.2 825.9 715.7 852.8 721.1 880C722.3 885.9 718.5 891.7 712.6 892.8C706.7 894 700.9 890.2 699.8 884.3C699.8 884.1 699.7 884 699.7 883.8V883.6C695.7 857.1 689.8 830.9 682.6 805L676.8 785.7L670.3 766.6C665.7 754 660.9 741.4 655.6 729.1C653.1 722.9 650.2 716.8 647.4 710.7C646 707.7 644.6 704.6 643.1 701.6L638.6 692.6C637.1 689.6 635.6 686.6 634 683.6L629.2 674.7L626.8 670.3L625.6 668.1L624.3 665.9L619.2 657.2L616.7 652.9C615.8 651.5 614.9 650.1 614 648.6L608.7 640.1C607 637.2 605 634.5 603.2 631.7C601.3 628.9 599.5 626.1 597.6 623.4L591.8 615.3C590.8 614 589.9 612.6 588.9 611.3L585.9 607.4C582 602 577.4 597.2 570.2 594.8L569.7 594.6C560.3 591.5 555.1 581.4 558.2 572C561.3 562.6 571.4 557.4 580.8 560.5C587.2 563 591.8 568.9 592.7 575.5Z" fill="#E84C87"/><path d="M623.4 914.7V974" stroke="#E84C87" stroke-width="5" stroke-miterlimit="10" stroke-linecap="round"/><path d="M634.5 906.9V936.3" stroke="#E84C87" stroke-width="5" stroke-miterlimit="10" stroke-linecap="round"/><path d="M515.9 863.9V893.3" stroke="#E84C87" stroke-width="5" stroke-miterlimit="10" stroke-linecap="round"/><path d="M570.4 585.2V614.6" stroke="#E84C87" stroke-width="5" stroke-miterlimit="10" stroke-linecap="round"/><path d="M396.4 641H570.4" stroke="#231F20" stroke-width="2.483" stroke-miterlimit="10" stroke-linecap="round" stroke-linejoin="round"/><path d="M438.4 641V599.9" stroke="#231F20" stroke-width="2.483" stroke-miterlimit="10" stroke-linecap="round" stroke-linejoin="round"/><path d="M527.4 641V693" stroke="#231F20" stroke-width="2.483" stroke-miterlimit="10" stroke-linecap="round" stroke-linejoin="round"/><path d="M457.4 693H563.4" stroke="#231F20" stroke-width="2.483" stroke-miterlimit="10" stroke-linecap="round" stroke-linejoin="round"/><path d="M907.7 641H1081.7" stroke="#231F20" stroke-width="2.483" stroke-miterlimit="10" stroke-linecap="round" stroke-linejoin="round"/><path d="M759.9 797H861.7" stroke="#231F20" stroke-width="2.483" stroke-miterlimit="10" stroke-linecap="round" stroke-linejoin="round"/><rect width="206.6" height="52" fill="#000" fill-opacity="0" transform="translate(217.8 849)"/><path d="M317.7 849V901" stroke="#231F20" stroke-width="2.483" stroke-miterlimit="10" stroke-linecap="round" stroke-linejoin="round"/><path d="M290.4 901H424.4" stroke="#231F20" stroke-width="2.483" stroke-miterlimit="10" stroke-linecap="round" stroke-linejoin="round"/><path d="M217.8 849H351.8" stroke="#231F20" stroke-width="2.483" stroke-miterlimit="10" stroke-linecap="round" stroke-linejoin="round"/><rect width="206.6" height="52" fill="#000" fill-opacity="0" transform="translate(785 307.8)"/><path d="M884.9 307.8V359.8" stroke="#231F20" stroke-width="2.483" stroke-miterlimit="10" stroke-linecap="round" stroke-linejoin="round"/><path d="M857.6 359.8H991.6" stroke="#231F20" stroke-width="2.483" stroke-miterlimit="10" stroke-linecap="round" stroke-linejoin="round"/><path d="M785 307.8H919" stroke="#231F20" stroke-width="2.483" stroke-miterlimit="10" stroke-linecap="round" stroke-linejoin="round"/><path d="M940.4 589V641" stroke="#231F20" stroke-width="2.483" stroke-miterlimit="10" stroke-linecap="round" stroke-linejoin="round"/><path d="M764.4 459.6V491.6" stroke="#231F20" stroke-width="2.483" stroke-miterlimit="10" stroke-linecap="round" stroke-linejoin="round"/><path d="M971.1 589H855.7" stroke="#231F20" stroke-width="2.483" stroke-miterlimit="10" stroke-linecap="round" stroke-linejoin="round"/><path d="M803.9 491.6H688.6" stroke="#231F20" stroke-width="2.483" stroke-miterlimit="10" stroke-linecap="round" stroke-linejoin="round"/><path d="M831.1 797V837" stroke="#231F20" stroke-width="2.483" stroke-miterlimit="10" stroke-linecap="round" stroke-linejoin="round"/><rect width="85.3" height="220.2" fill="#000" fill-opacity="0" transform="translate(763.8 738.5)"/><path fill-rule="evenodd" clip-rule="evenodd" d="M846.1 949.4H766.9C765.2 949.4 763.9 950.7 763.9 952.4V955.7C763.9 957.4 765.2 958.7 766.9 958.7H846.1C847.8 958.7 849.1 957.4 849.1 955.7V952.4C849.1 950.8 847.7 949.4 846.1 949.4Z" fill="#FFF3E6" stroke="#231F20" stroke-width="2.483" stroke-miterlimit="10" stroke-linecap="round" stroke-linejoin="round"/><path d="M813.9 760.5H799L766.7 779.5H846.2L813.9 760.5Z" fill="#FFF3E6" stroke="#231F20" stroke-width="2.483" stroke-miterlimit="10" stroke-linecap="round" stroke-linejoin="round"/><path d="M803.3 760.5H799L766.7 779.5H784.3L803.3 760.5Z" fill="#231F20" stroke="#231F20" stroke-width="2.483" stroke-miterlimit="10" stroke-linecap="round" stroke-linejoin="round"/><path d="M846.1 784.1H766.7V949.4H846.1V784.1Z" fill="#FFF3E6" stroke="#231F20" stroke-width="2.483" stroke-miterlimit="10" stroke-linecap="round" stroke-linejoin="round"/><path d="M781.1 784.1H766.7V949.4H781.1V784.1Z" fill="#231F20" stroke="#231F20" stroke-width="2.034" stroke-miterlimit="10" stroke-linecap="round" stroke-linejoin="round"/><path fill-rule="evenodd" clip-rule="evenodd" d="M846.1 774.8H766.9C765.2 774.8 763.9 776.1 763.9 777.8V781.1C763.9 782.8 765.2 784.1 766.9 784.1H846.1C847.8 784.1 849.1 782.8 849.1 781.1V777.8C849.1 776.1 847.7 774.8 846.1 774.8Z" fill="#FFF3E6" stroke="#231F20" stroke-width="2.483" stroke-miterlimit="10" stroke-linecap="round" stroke-linejoin="round"/><rect width="17.4" height="9.3" fill="#000" fill-opacity="0" transform="translate(763.8 774.8)"/><path fill-rule="evenodd" clip-rule="evenodd" d="M779.7 781.1V777.8C779.7 776.1 780.4 774.8 781.2 774.8H766.8C765.1 774.8 763.8 776.1 763.8 777.8V781.1C763.8 782.8 765.1 784.1 766.8 784.1H781.2C780.4 784.1 779.7 782.8 779.7 781.1Z" fill="#231F20" stroke="#231F20" stroke-width="2.483" stroke-miterlimit="10" stroke-linecap="round" stroke-linejoin="round"/><rect width="17.4" height="9.3" fill="#000" fill-opacity="0" transform="translate(763.8 949.4)"/><path fill-rule="evenodd" clip-rule="evenodd" d="M779.7 955.7V952.4C779.7 950.7 780.4 949.4 781.2 949.4H766.8C765.1 949.4 763.8 950.7 763.8 952.4V955.7C763.8 957.4 765.1 958.7 766.8 958.7H781.2C780.4 958.7 779.7 957.4 779.7 955.7Z" fill="#231F20" stroke="#231F20" stroke-width="2.483" stroke-miterlimit="10" stroke-linecap="round" stroke-linejoin="round"/><path d="M812.9 738.5H799.9V755.7H812.9V738.5Z" fill="#FFF3E6" stroke="#231F20" stroke-width="2.483" stroke-miterlimit="10" stroke-linecap="round" stroke-linejoin="round"/><path d="M803.3 738.5H799.9V755.7H803.3V738.5Z" fill="#231F20" stroke="#231F20" stroke-width="2.483" stroke-miterlimit="10" stroke-linecap="round" stroke-linejoin="round"/><path d="M809.8 755.7H803.3V759.9H809.8V755.7Z" fill="#231F20" stroke="#231F20" stroke-width="2.483" stroke-miterlimit="10" stroke-linecap="round" stroke-linejoin="round"/><path d="M794.4 750.4V733.8C794.4 727.6 799.4 722.6 805.6 722.6C811.8 722.6 816.8 727.6 816.8 733.8V778.2C816.8 781.4 821.1 782.3 822.4 779.5L829 765.6C831.6 760.2 838.1 758 843.4 760.7C848.3 763.2 850.4 769 848.4 774.1L842.6 788.5C842.3 789.3 843.4 789.9 843.9 789.2C846.8 784.8 852.8 783.7 857.1 786.7C860.7 789.2 862.1 794 860.4 798.1L856.2 808C862.8 814.1 866.1 823 865.2 831.9L863.3 851.2C862.7 856.9 861.2 862.5 858.8 867.7L849.3 888.3L1017.5 1190.6L786.8 1207.3L773.9 889.4L763.7 877.5C760.3 873.6 757.8 869 756.2 864.1L747.2 835.3C744.5 826.7 748 817.3 755.6 812.5L765.2 806.5L766.8 816.3C767.7 820.1 773 820.7 774.6 817.1L784.3 796.1C790.9 781.8 794.4 766.2 794.4 750.4Z" fill="#FFF3E6" stroke="#231F20" stroke-width="2" stroke-miterlimit="10" stroke-linecap="round" stroke-linejoin="round"/><rect width="110.617" height="400.8" fill="#000" fill-opacity="0" transform="translate(746.383 806.5)"/><path d="M857 1199.1L784.2 887.4C784.2 887.4 768.9 873.4 763.6 860.1L756 835.7C753.7 828.3 756.6 820.9 766.8 815.5L765.3 806.5L755.7 812.5C748 817.3 744.6 826.6 747.3 835.3L756.3 864.1C757.8 869 760.4 873.6 763.8 877.5L774 889.4L786.9 1207.3L857 1199.1Z" fill="#231F20" stroke="#231F20" stroke-width="2.483" stroke-miterlimit="10" stroke-linecap="round" stroke-linejoin="round"/></g><defs><clipPath id="clip0"><rect width="962" height="1035" fill="#fff"/></clipPath></defs></svg>