<svg preserveAspectRatio="xMidYMid meet" viewBox="0 0 400 300" fill="none" xmlns="http://www.w3.org/2000/svg">
<path d="M0 297.008H93.5408V273.622H37.4851V273.107C47.1143 261.242 65.6849 253.504 78.4092 241.984C87.3506 234.418 93.7127 225.133 93.7127 211.033C93.7127 189.195 77.8933 172 49.3497 172C30.4352 172 17.195 178.706 10.145 189.023C4.4707 196.933 1.89145 206.046 1.89145 218.255H28.5437C28.5437 210.861 30.2632 204.671 34.218 200.372C37.4851 196.417 42.1277 194.697 48.4899 194.697C59.1508 194.697 65.341 201.575 65.341 211.892C65.341 220.49 60.6983 225.992 52.7887 231.667C40.4082 240.608 24.2449 250.409 12.8962 262.962C4.8146 272.075 0.17195 281.876 0 297.008Z" fill="white"/>
<path d="M159.782 299.931C192.108 299.931 213.258 274.998 213.258 235.965C213.258 196.761 192.28 172 159.954 172C128.315 172 106.649 196.933 106.649 235.965C106.649 274.998 128.315 299.931 159.782 299.931ZM159.954 277.749C142.759 277.749 135.537 260.898 135.537 235.965C135.537 210.861 142.759 193.838 159.954 193.838C177.321 193.838 184.371 210.861 184.371 235.965C184.371 261.07 177.493 277.749 159.954 277.749Z" fill="white"/>
<path d="M252.549 297.008H280.577V173.376H258.395C255.472 190.227 242.06 197.793 224.177 198.308V217.051H252.549V297.008Z" fill="white"/>
<path d="M349.619 299.931C378.85 299.931 400 285.831 400 261.414C400 246.97 391.746 235.106 375.583 230.635V230.119C388.307 225.648 394.498 216.363 394.498 205.358C394.498 184.724 377.131 172 349.447 172C321.935 172 304.052 185.584 304.052 205.874C304.052 217.223 310.07 226.164 323.138 230.807V231.323C307.491 236.137 298.893 247.658 298.893 262.102C298.893 285.831 320.387 299.931 349.619 299.931ZM349.275 222.725C337.41 222.725 330.532 216.535 330.532 207.25C330.532 197.793 337.41 191.43 349.275 191.43C361.311 191.43 368.017 197.793 368.017 207.25C368.017 216.535 361.311 222.725 349.275 222.725ZM349.619 278.953C335.691 278.953 327.265 271.731 327.265 260.382C327.265 248.518 335.863 241.124 349.619 241.124C363.375 241.124 371.628 248.518 371.628 260.382C371.628 271.559 362.859 278.953 349.619 278.953Z" fill="white"/>
</svg>
