<svg fill="none" height="40" viewBox="0 0 40 40" width="40" xmlns="http://www.w3.org/2000/svg" xmlns:xlink="http://www.w3.org/1999/xlink"><clipPath id="a"><path d="m10 10h20v20h-20z"/></clipPath><circle cx="20" cy="20" fill="#b6c0c5" r="20"/><path clip-rule="evenodd" d="m38.507 12.4044-26.1028 26.1028c-4.13989-1.7008-7.58318-4.7503-9.78311-8.6017l27.28421-27.28416c3.8513 2.19993 6.9008 5.64322 8.6017 9.78306z" fill="#9ea7ab" fill-rule="evenodd" opacity=".5"/><g clip-path="url(#a)"><path d="m24.1667 28.3333h-8.3334c-.46 0-.8333.3734-.8333.8334s.3733.8333.8333.8333h8.3334c.46 0 .8333-.3733.8333-.8333s-.3733-.8334-.8333-.8334zm3.3333-18.3333h-15c-1.3783 0-2.5 1.1217-2.5 2.5v5c0 2.2792 1.8417 4.1317 4.1142 4.1617.725 1.375 1.9091 2.495 3.3858 3.095v1.91h5v-1.91c1.4775-.6 2.6608-1.72 3.3858-3.095 2.2725-.03 4.1142-1.8825 4.1142-4.1617v-5c0-1.3783-1.1217-2.5-2.5-2.5zm-15.8333 7.5v-5c0-.4592.3741-.8333.8333-.8333h.8333v6.9116c0 .4484.0617.885.15 1.315-1.045-.3-1.8166-1.2533-1.8166-2.3933zm11.2883-1.3883-1.3642 1.0733.5709 1.7883c.0591.1859-.0092.3892-.1692.5017-.0767.0533-.1667.0808-.2567.0808-.0958 0-.1925-.0308-.2725-.0925l-1.4641-1.13-1.4725 1.13c-.155.1184-.37.1234-.5284.0117-.16-.1125-.2283-.315-.1691-.5008l.5716-1.79-1.3566-1.0734c-.1492-.1175-.2067-.3166-.1442-.4958.0625-.18.2317-.3.4217-.3h1.6858l.5642-1.7025c.06-.1825.2308-.3058.4233-.3058h.0008c.1917 0 .3617.1225.4234.3041l.5716 1.705h1.6884c.19 0 .3591.1209.4216.3009.0617.1783.0034.3775-.1458.495zm5.3783 1.3883c0 1.14-.7716 2.0933-1.8166 2.3933.0883-.4291.15-.8658.15-1.315v-6.9116h.8333c.4592 0 .8333.3741.8333.8333z" fill="#fff"/></g></svg>
